<svg width="19" height="28" viewBox="0 0 19 28" fill="none" xmlns="http://www.w3.org/2000/svg">
<path d="M9.00001 0.199951V8.59995H4.80001C2.48701 8.59995 0.600006 6.71295 0.600006 4.39995C0.600006 2.08695 2.48701 0.199951 4.80001 0.199951H9.00001ZM9.00001 9.79995V18.2H4.80001C2.48701 18.2 0.600006 16.313 0.600006 14C0.600006 11.687 2.48701 9.79995 4.80001 9.79995H9.00001ZM9.00001 19.4V23.6C9.00001 25.913 7.11301 27.8 4.80001 27.8C2.48701 27.8 0.600006 25.913 0.600006 23.6C0.600006 21.287 2.48701 19.4 4.80001 19.4H9.00001ZM18.6 4.39995C18.6 6.71295 16.713 8.59995 14.4 8.59995H10.2V0.199951H14.4C16.713 0.199951 18.6 2.08695 18.6 4.39995ZM14.4 9.79995C13.2861 9.79995 12.2178 10.2425 11.4302 11.0301C10.6425 11.8178 10.2 12.886 10.2 14C10.2 15.1139 10.6425 16.1821 11.4302 16.9698C12.2178 17.7575 13.2861 18.2 14.4 18.2C15.5139 18.2 16.5822 17.7575 17.3699 16.9698C18.1575 16.1821 18.6 15.1139 18.6 14C18.6 12.886 18.1575 11.8178 17.3699 11.0301C16.5822 10.2425 15.5139 9.79995 14.4 9.79995Z" fill="#F7F7F7"/>
</svg>
