<svg width="30" height="30" viewBox="0 0 30 30" fill="none" xmlns="http://www.w3.org/2000/svg">
<path d="M26.25 23.125C26.25 24.8512 24.8512 26.25 23.125 26.25H6.875C5.14937 26.25 3.75 24.8512 3.75 23.125V6.875C3.75 5.14875 5.14937 3.75 6.875 3.75H23.125C24.8512 3.75 26.25 5.14875 26.25 6.875V23.125Z" fill="#F7F7F7"/>
<path d="M20.6437 16C20.2375 15.4375 19.65 15.05 18.8937 14.8437C18.8937 14.8437 19.5312 14.6125 20.1062 13.75C20.45 13.2 20.625 12.5375 20.625 11.7625C20.625 10.4187 20.1375 9.3875 19.1625 8.68125C18.1875 7.975 17.0875 7.5 15.2187 7.5H9.375V22.5H15.8937C17.6625 22.4875 18.9937 22.1062 19.9 21.375C20.8 20.6312 21.25 19.5312 21.25 18.0625C21.25 17.25 21.05 16.5625 20.6437 16ZM13.125 10C13.125 10 15.7312 10 15.7812 10C16.7312 10 17.5 10.7687 17.5 11.7187C17.5 12.6687 16.7312 13.4375 15.7812 13.4375C15.7312 13.4375 13.125 13.4375 13.125 13.4375V10ZM16.25 20H13.125V16.25H16.25C17.2875 16.25 18.125 17.0875 18.125 18.125C18.125 19.1625 17.2875 20 16.25 20Z" fill="#151515"/>
</svg>
