<svg xmlns="http://www.w3.org/2000/svg" xmlns:xlink="http://www.w3.org/1999/xlink" viewBox="0,0,256,256" width="250px" height="250px" fill-rule="nonzero"><g fill="#f7f7f7" fill-rule="nonzero" stroke="none" stroke-width="1" stroke-linecap="butt" stroke-linejoin="miter" stroke-miterlimit="10" stroke-dasharray="" stroke-dashoffset="0" font-family="none" font-weight="none" font-size="none" text-anchor="none" style="mix-blend-mode: normal"><g transform="scale(5.12,5.12)"><path d="M25,2c-12.703,0 -23,10.297 -23,23c0,12.703 10.297,23 23,23c12.703,0 23,-10.297 23,-23c0,-12.703 -10.297,-23 -23,-23zM33.406,29.365c-1.04,2.471 -2.968,4.734 -6.536,4.734c0,0 -1.513,-10.543 -1.536,-10.785c-0.093,0.254 -2.229,5.797 -2.229,5.797c-1.005,2.563 -2.922,4.976 -6.49,4.988l-2.794,-17.044c2.321,0 5.185,1.905 5.393,5.046c0,0 0.358,6.247 0.37,6.744c0.196,-0.531 2.621,-6.813 2.621,-6.813c0.959,-2.575 2.772,-4.988 6.178,-4.988c0,0 1.455,11.247 1.513,11.778c0.15,-0.531 2.148,-6.79 2.148,-6.79c0.958,-2.575 2.817,-4.988 6.35,-4.988z"></path></g></g></svg>