<svg width="18" height="20" viewBox="0 0 18 20" fill="none" xmlns="http://www.w3.org/2000/svg">
<path d="M9.98438 7H15.5156L9.98438 1.51562V7ZM12.9844 12.0156V10H5.01562V12.0156H12.9844ZM12.9844 16V13.9844H5.01562V16H12.9844ZM11.0156 0.015625L17.0156 6.01562V18.0156C17.0156 18.5469 16.8125 19.0156 16.4062 19.4219C16 19.7969 15.5312 19.9844 15 19.9844H3C2.46875 19.9844 2 19.7969 1.59375 19.4219C1.1875 19.0156 0.984375 18.5469 0.984375 18.0156L1.03125 1.98438C1.03125 1.45313 1.21875 1 1.59375 0.625C2 0.21875 2.46875 0.015625 3 0.015625H11.0156Z" fill="#F7F7F7"/>
</svg>
